<svg width="71" height="53" viewBox="0 0 71 53" fill="none" xmlns="http://www.w3.org/2000/svg">
<path fill-rule="evenodd" clip-rule="evenodd" d="M69.6142 12.608C68.6467 8.84831 67.0778 5.93509 64.9424 3.92331C62.8593 1.96651 60.323 0.977112 57.4031 0.977112H13.5969C10.677 0.977112 8.14068 1.96651 6.05757 3.93431C3.92217 5.94608 2.34459 8.87029 1.37712 12.63C0.444512 16.3018 0 20.809 0 26.8223V50.0841C0 50.6888 0.0435775 51.1395 0.139453 51.5023C0.235328 51.876 0.392217 52.1728 0.610115 52.3707C0.819298 52.5686 1.07206 52.6675 1.35968 52.6675H57.4031C60.323 52.6675 62.8593 51.6782 64.9424 49.7104C67.0778 47.6986 68.6554 44.7744 69.6229 41.0147C70.5555 37.3429 71 32.8357 71 26.8223C70.9913 20.809 70.5555 16.2908 69.6142 12.608ZM33.9312 37.5522V43.7964H23.167V9.84909H27.9695V37.5522H33.9312ZM41.2966 23.7006V16.0933H47.5634V9.84909H36.4941V43.7964H47.5634V37.5522H41.2966V29.9448H47.2234V23.7006H41.2966ZM7.12133 38.1896C6.37176 35.2544 6.10156 31.3738 6.10156 26.8226C6.10156 22.2714 6.37176 18.3907 7.12133 15.4555C8.1411 11.476 10.0848 9.4422 13.5973 9.4422C18.5044 9.4422 20.3783 13.5097 20.3783 22.4692V22.5132H15.4363V22.4143C15.4363 17.4893 14.9221 15.6864 13.4578 15.6864C12.5078 15.6864 11.9238 16.346 11.549 17.7751C11.1045 19.4791 11.0348 22.7001 11.0348 26.8226C11.0348 31.1759 11.1394 34.353 11.5839 36.1009C11.9238 37.3322 12.4032 37.9478 13.1876 37.9478C14.5473 37.9478 15.1313 36.1009 15.1313 31.1319H20.0732C20.0732 40.4652 18.1296 44.203 13.2922 44.203C10.0848 44.203 8.14981 42.1692 7.12133 38.1896ZM59.9221 26.8226C59.9221 30.1865 59.8611 33.6934 59.3469 35.6832C58.9721 37.1453 58.3533 37.9478 57.4032 37.9588C56.4793 37.9588 55.8692 37.1563 55.4944 35.6832C54.9889 33.6934 54.8843 30.1865 54.8843 26.8226C54.8843 23.4586 54.9802 19.9518 55.4944 17.962C55.8692 16.4889 56.4793 15.6864 57.4032 15.6864C58.362 15.6864 58.9721 16.4889 59.3469 17.962C59.8524 19.9518 59.9221 23.4586 59.9221 26.8226ZM49.9424 26.8226C49.9424 31.3738 50.2126 35.2544 50.9622 38.1896C51.9819 42.1692 53.9256 44.203 57.4032 44.203C60.8809 44.203 62.8594 42.1692 63.8792 38.1896C64.6287 35.2544 64.8989 31.3738 64.8989 26.8226C64.8989 22.2714 64.6287 18.3907 63.8792 15.4555C62.8507 11.476 60.8809 9.4422 57.4032 9.4422C53.9256 9.4422 51.9819 11.476 50.9622 15.4555C50.2126 18.3907 49.9424 22.2714 49.9424 26.8226Z" fill="white"/>
</svg>
